<?xml version="1.0" encoding="UTF-8" standalone="no"?><svg xmlns="http://www.w3.org/2000/svg" xmlns:xlink="http://www.w3.org/1999/xlink" contentStyleType="text/css" height="171px" preserveAspectRatio="none" style="width:901px;height:171px;background:#FFFFFF;" version="1.1" viewBox="0 0 901 171" width="901px" zoomAndPan="magnify"><defs/><g><rect fill="none" height="100" style="stroke:#000000;stroke-width:1.0;" width="100" x="20" y="30"/><text fill="#000000" font-family="sans-serif" font-size="10" lengthAdjust="spacing" textLength="3" x="30" y="49.2822"> </text><text fill="#000000" font-family="sans-serif" font-size="10" lengthAdjust="spacing" textLength="88" x="30" y="60.9229">(test_sample.exe)</text><text fill="#000000" font-family="sans-serif" font-size="12" lengthAdjust="spacing" textLength="57" x="25" y="41.1387">Host App</text><rect fill="none" height="130" style="stroke:#000000;stroke-width:1.0;" width="290" x="290" y="30"/><rect fill="none" height="100" style="stroke:#000000;stroke-width:1.0;" width="100" x="300" y="50"/><text fill="#000000" font-family="sans-serif" font-size="10" lengthAdjust="spacing" textLength="3" x="310" y="69.2822"> </text><text fill="#000000" font-family="sans-serif" font-size="10" lengthAdjust="spacing" textLength="67" x="310" y="80.9229">(pcie-emu.ko)</text><text fill="#000000" font-family="sans-serif" font-size="12" lengthAdjust="spacing" textLength="25" x="305" y="61.1387">BRD</text><rect fill="none" height="100" style="stroke:#000000;stroke-width:1.0;" width="100" x="470" y="50"/><text fill="#000000" font-family="sans-serif" font-size="10" lengthAdjust="spacing" textLength="3" x="480" y="69.2822"> </text><text fill="#000000" font-family="sans-serif" font-size="10" lengthAdjust="spacing" textLength="57" x="480" y="80.9229">(proxy.exe)</text><text fill="#000000" font-family="sans-serif" font-size="12" lengthAdjust="spacing" textLength="33" x="475" y="61.1387">Proxy</text><text fill="#000000" font-family="sans-serif" font-size="12" lengthAdjust="spacing" textLength="93" x="295" y="41.1387">PCIe Emulation</text><rect fill="none" height="130" style="stroke:#000000;stroke-width:1.0;" width="190" x="700" y="30"/><rect fill="none" height="100" style="stroke:#000000;stroke-width:1.0;" width="50" x="710" y="50"/><text fill="#000000" font-family="sans-serif" font-size="10" lengthAdjust="spacing" textLength="3" x="720" y="69.2822"> </text><text fill="#000000" font-family="sans-serif" font-size="10" lengthAdjust="spacing" textLength="23" x="720" y="80.9229">Host</text><text fill="#000000" font-family="sans-serif" font-size="10" lengthAdjust="spacing" textLength="39" x="720" y="92.5635">Adapter</text><text fill="#000000" font-family="sans-serif" font-size="10" lengthAdjust="spacing" textLength="29" x="720" y="104.2041">Model</text><text fill="#000000" font-family="sans-serif" font-size="12" lengthAdjust="spacing" textLength="50" x="715" y="61.1387">Adapter</text><rect fill="none" height="100" style="stroke:#000000;stroke-width:1.0;" width="100" x="780" y="50"/><text fill="#000000" font-family="sans-serif" font-size="12" lengthAdjust="spacing" textLength="92" x="785" y="61.1387">Runtime Model</text><text fill="#000000" font-family="sans-serif" font-size="12" lengthAdjust="spacing" textLength="100" x="705" y="41.1387">Simulator Model</text><text fill="#000000" font-family="sans-serif" font-size="12" lengthAdjust="spacing" textLength="4" x="15" y="21.1387"> </text><path d="M121,40 L136,30 L136,35 L274,35 L274,30 L289,40 L274,50 L274,45 L136,45 L136,50 L121,40 " fill="#FFFFFF" style="stroke:#000000;stroke-width:1.0;"/><a href="pcie_mapping.html#lblResource0" target="_top" title="pcie_mapping.html#lblResource0" xlink:actuate="onRequest" xlink:href="pcie_mapping.html#lblResource0" xlink:show="new" xlink:title="pcie_mapping.html#lblResource0" xlink:type="simple"><text fill="#0000FF" font-family="sans-serif" font-size="10" lengthAdjust="spacing" text-decoration="underline" textLength="77" x="165" y="43.4619">/dev/rescource0</text></a><path d="M121,65 L136,55 L136,60 L274,60 L274,55 L289,65 L274,75 L274,70 L136,70 L136,75 L121,65 " fill="#FFFFFF" style="stroke:#000000;stroke-width:1.0;"/><a href="pcie_mapping.html#lblResource2" target="_top" title="pcie_mapping.html#lblResource2" xlink:actuate="onRequest" xlink:href="pcie_mapping.html#lblResource2" xlink:show="new" xlink:title="pcie_mapping.html#lblResource2" xlink:type="simple"><text fill="#0000FF" font-family="sans-serif" font-size="10" lengthAdjust="spacing" text-decoration="underline" textLength="77" x="165" y="68.4619">/dev/rescource2</text></a><path d="M121,90 L136,80 L136,85 L274,85 L274,80 L289,90 L274,100 L274,95 L136,95 L136,100 L121,90 " fill="#FFFFFF" style="stroke:#000000;stroke-width:1.0;"/><a href="pcie_mapping.html#lblResource4" target="_top" title="pcie_mapping.html#lblResource4" xlink:actuate="onRequest" xlink:href="pcie_mapping.html#lblResource4" xlink:show="new" xlink:title="pcie_mapping.html#lblResource4" xlink:type="simple"><text fill="#0000FF" font-family="sans-serif" font-size="10" lengthAdjust="spacing" text-decoration="underline" textLength="77" x="165" y="93.4619">/dev/rescource4</text></a><path d="M401,60 L416,50 L416,55 L454,55 L454,50 L469,60 L454,70 L454,65 L416,65 L416,70 L401,60 " fill="#FFFFFF" style="stroke:#000000;stroke-width:1.0;"/><text fill="#000000" font-family="sans-serif" font-size="10" lengthAdjust="spacing" textLength="27" x="421.5" y="63.4619">BAR0</text><path d="M401,85 L416,75 L416,80 L454,80 L454,75 L469,85 L454,95 L454,90 L416,90 L416,95 L401,85 " fill="#FFFFFF" style="stroke:#000000;stroke-width:1.0;"/><text fill="#000000" font-family="sans-serif" font-size="10" lengthAdjust="spacing" textLength="27" x="421.5" y="88.4619">BAR2</text><path d="M401,110 L416,100 L416,105 L454,105 L454,100 L469,110 L454,120 L454,115 L416,115 L416,120 L401,110 " fill="#FFFFFF" style="stroke:#000000;stroke-width:1.0;"/><text fill="#000000" font-family="sans-serif" font-size="10" lengthAdjust="spacing" textLength="27" x="421.5" y="113.4619">BAR4</text><path d="M698,95 L693,90 L693,100 L698,95 " fill="#000000" style="stroke:#000000;stroke-width:1.0;"/><path d="M581,95 L586,90 L586,100 L581,95 " fill="#000000" style="stroke:#000000;stroke-width:1.0;"/><line style="stroke:#000000;stroke-width:1.0;" x1="581" x2="699" y1="95" y2="95"/><rect fill="#FFFFFF" height="11.6406" style="stroke:#FFFFFF;stroke-width:1.0;" width="33" x="623.5" y="89.1797"/><text fill="#000000" font-family="sans-serif" font-size="10" lengthAdjust="spacing" textLength="33" x="623.5" y="98.4619">TCP/IP</text><path d="M778,100 L773,95 L773,105 L778,100 " fill="#000000" style="stroke:#000000;stroke-width:1.0;"/><path d="M761,100 L766,95 L766,105 L761,100 " fill="#000000" style="stroke:#000000;stroke-width:1.0;"/><line style="stroke:#000000;stroke-width:1.0;" x1="761" x2="779" y1="100" y2="100"/><!--MD5=[47b6909511fd93976dc23b2fccc4c4c8]
@startwire{myimage.svg}
' skinparam DefaultFontSize 20
' skinparam ArrowFontSize 20

* Host_App
    print("\n(test_sample.exe)")
- -
move(150, 0)
* PCIe_Emulation
    * BRD
        print("\n(pcie-emu.ko)")
    - -
    move(50, 0)
    * Proxy
        print("\n(proxy.exe)")
- -
move(100, 0)
* Simulator_Model
    * Adapter [50x100]
        print("\nHost\nAdapter\nModel")
    - -
    * Runtime_Model

Host_App <=> PCIe_Emulation : [[ pcie_mapping.html#lblResource0 /dev/rescource0 ]]
Host_App <=> PCIe_Emulation : [[ pcie_mapping.html#lblResource2 /dev/rescource2 ]]
Host_App <=> PCIe_Emulation : [[ pcie_mapping.html#lblResource4 /dev/rescource4 ]]
PCIe_Emulation.BRD <=> PCIe_Emulation.Proxy : BAR0
PCIe_Emulation.BRD <=> PCIe_Emulation.Proxy : BAR2
PCIe_Emulation.BRD <=> PCIe_Emulation.Proxy : BAR4

PCIe_Emulation(100%,50%) <-> Simulator_Model : TCP/IP
Simulator_Model.Adapter(100%,50%) <-> Simulator_Model.Runtime_Model
@endwire

@startwire{myimage.svg}

* Host_App
    print("\n(test_sample.exe)")
- -
move(150, 0)
* PCIe_Emulation
    * BRD
        print("\n(pcie-emu.ko)")
    - -
    move(50, 0)
    * Proxy
        print("\n(proxy.exe)")
- -
move(100, 0)
* Simulator_Model
    * Adapter [50x100]
        print("\nHost\nAdapter\nModel")
    - -
    * Runtime_Model

Host_App <=> PCIe_Emulation : [[ pcie_mapping.html#lblResource0 /dev/rescource0 ]]
Host_App <=> PCIe_Emulation : [[ pcie_mapping.html#lblResource2 /dev/rescource2 ]]
Host_App <=> PCIe_Emulation : [[ pcie_mapping.html#lblResource4 /dev/rescource4 ]]
PCIe_Emulation.BRD <=> PCIe_Emulation.Proxy : BAR0
PCIe_Emulation.BRD <=> PCIe_Emulation.Proxy : BAR2
PCIe_Emulation.BRD <=> PCIe_Emulation.Proxy : BAR4

PCIe_Emulation(100%,50%) <-> Simulator_Model : TCP/IP
Simulator_Model.Adapter(100%,50%) <-> Simulator_Model.Runtime_Model
@endwire

PlantUML version 1.2022.5(Sat Apr 30 10:55:52 UTC 2022)
(GPL source distribution)
Java Runtime: OpenJDK Runtime Environment
JVM: OpenJDK 64-Bit Server VM
Default Encoding: UTF-8
Language: en
Country: null
--></g></svg>