<?xml version="1.0" encoding="UTF-8" standalone="no"?><svg xmlns="http://www.w3.org/2000/svg" xmlns:xlink="http://www.w3.org/1999/xlink" contentStyleType="text/css" height="171px" preserveAspectRatio="none" style="width:841px;height:171px;background:#FFFFFF;" version="1.1" viewBox="0 0 841 171" width="841px" zoomAndPan="magnify"><defs/><g><rect fill="none" height="100" style="stroke:#000000;stroke-width:1.0;" width="100" x="20" y="50"/><text fill="#000000" font-family="sans-serif" font-size="10" lengthAdjust="spacing" textLength="3" x="30" y="69.2822"> </text><text fill="#000000" font-family="sans-serif" font-size="10" lengthAdjust="spacing" textLength="88" x="30" y="80.9229">(test_sample.exe)</text><text fill="#000000" font-family="sans-serif" font-size="12" lengthAdjust="spacing" textLength="57" x="25" y="61.1387">Host App</text><rect fill="#D3D3D3" height="130" style="stroke:#000000;stroke-width:1.0;" width="290" x="260" y="30"/><rect fill="#FFFFFF" height="100" style="stroke:#000000;stroke-width:1.0;" width="100" x="270" y="50"/><text fill="#000000" font-family="sans-serif" font-size="10" lengthAdjust="spacing" textLength="3" x="280" y="69.2822"> </text><text fill="#000000" font-family="sans-serif" font-size="10" lengthAdjust="spacing" textLength="67" x="280" y="80.9229">(pcie-emu.ko)</text><text fill="#000000" font-family="sans-serif" font-size="12" lengthAdjust="spacing" textLength="25" x="275" y="61.1387">BRD</text><rect fill="#FFFFFF" height="100" style="stroke:#000000;stroke-width:1.0;" width="100" x="440" y="50"/><text fill="#000000" font-family="sans-serif" font-size="10" lengthAdjust="spacing" textLength="3" x="450" y="69.2822"> </text><text fill="#000000" font-family="sans-serif" font-size="10" lengthAdjust="spacing" textLength="57" x="450" y="80.9229">(proxy.exe)</text><text fill="#000000" font-family="sans-serif" font-size="12" lengthAdjust="spacing" textLength="33" x="445" y="61.1387">Proxy</text><text fill="#000000" font-family="sans-serif" font-size="12" lengthAdjust="spacing" textLength="93" x="265" y="41.1387">PCIe Emulation</text><rect fill="none" height="130" style="stroke:#000000;stroke-width:1.0;" width="190" x="640" y="30"/><rect fill="none" height="100" style="stroke:#000000;stroke-width:1.0;" width="50" x="650" y="50"/><text fill="#000000" font-family="sans-serif" font-size="10" lengthAdjust="spacing" textLength="3" x="660" y="69.2822"> </text><text fill="#000000" font-family="sans-serif" font-size="10" lengthAdjust="spacing" textLength="23" x="660" y="80.9229">Host</text><text fill="#000000" font-family="sans-serif" font-size="10" lengthAdjust="spacing" textLength="39" x="660" y="92.5635">Adapter</text><text fill="#000000" font-family="sans-serif" font-size="10" lengthAdjust="spacing" textLength="29" x="660" y="104.2041">Model</text><text fill="#000000" font-family="sans-serif" font-size="12" lengthAdjust="spacing" textLength="50" x="655" y="61.1387">Adapter</text><rect fill="none" height="100" style="stroke:#000000;stroke-width:1.0;" width="100" x="720" y="50"/><rect fill="none" height="25" style="stroke:#000000;stroke-width:1.0;" width="25" x="735" y="70"/><text fill="#000000" font-family="sans-serif" font-size="12" lengthAdjust="spacing" textLength="18" x="740" y="81.1387">M1</text><rect fill="none" height="25" style="stroke:#000000;stroke-width:1.0;" width="25" x="735" y="115"/><text fill="#000000" font-family="sans-serif" font-size="12" lengthAdjust="spacing" textLength="18" x="740" y="126.1387">M2</text><rect fill="none" height="25" style="stroke:#000000;stroke-width:1.0;" width="25" x="780" y="70"/><text fill="#000000" font-family="sans-serif" font-size="12" lengthAdjust="spacing" textLength="18" x="785" y="81.1387">M3</text><rect fill="none" height="25" style="stroke:#000000;stroke-width:1.0;" width="25" x="780" y="115"/><text fill="#000000" font-family="sans-serif" font-size="12" lengthAdjust="spacing" textLength="18" x="785" y="126.1387">M4</text><text fill="#000000" font-family="sans-serif" font-size="12" lengthAdjust="spacing" textLength="92" x="725" y="61.1387">Runtime Model</text><text fill="#000000" font-family="sans-serif" font-size="12" lengthAdjust="spacing" textLength="100" x="645" y="41.1387">Simulator Model</text><text fill="#000000" font-family="sans-serif" font-size="12" lengthAdjust="spacing" textLength="4" x="15" y="21.1387"> </text><path d="M121,70 L136,60 L136,65 L254,65 L254,60 L269,70 L254,80 L254,75 L136,75 L136,80 L121,70 " fill="#FFFFFF" style="stroke:#000000;stroke-width:1.0;"/><a href="pcie_mapping.html#lblResource0" target="_top" title="pcie_mapping.html#lblResource0" xlink:actuate="onRequest" xlink:href="pcie_mapping.html#lblResource0" xlink:show="new" xlink:title="pcie_mapping.html#lblResource0" xlink:type="simple"><text fill="#0000FF" font-family="sans-serif" font-size="10" lengthAdjust="spacing" text-decoration="underline" textLength="77" x="155" y="73.4619">/dev/rescource0</text></a><path d="M121,95 L136,85 L136,90 L254,90 L254,85 L269,95 L254,105 L254,100 L136,100 L136,105 L121,95 " fill="#FFFFFF" style="stroke:#000000;stroke-width:1.0;"/><a href="pcie_mapping.html#lblResource2" target="_top" title="pcie_mapping.html#lblResource2" xlink:actuate="onRequest" xlink:href="pcie_mapping.html#lblResource2" xlink:show="new" xlink:title="pcie_mapping.html#lblResource2" xlink:type="simple"><text fill="#0000FF" font-family="sans-serif" font-size="10" lengthAdjust="spacing" text-decoration="underline" textLength="77" x="155" y="98.4619">/dev/rescource2</text></a><path d="M121,120 L136,110 L136,115 L254,115 L254,110 L269,120 L254,130 L254,125 L136,125 L136,130 L121,120 " fill="#FFFFFF" style="stroke:#000000;stroke-width:1.0;"/><a href="pcie_mapping.html#lblResource4" target="_top" title="pcie_mapping.html#lblResource4" xlink:actuate="onRequest" xlink:href="pcie_mapping.html#lblResource4" xlink:show="new" xlink:title="pcie_mapping.html#lblResource4" xlink:type="simple"><text fill="#0000FF" font-family="sans-serif" font-size="10" lengthAdjust="spacing" text-decoration="underline" textLength="77" x="155" y="123.4619">/dev/rescource4</text></a><path d="M371,75 L386,65 L386,70 L424,70 L424,65 L439,75 L424,85 L424,80 L386,80 L386,85 L371,75 " fill="#FFFFFF" style="stroke:#000000;stroke-width:1.0;"/><text fill="#000000" font-family="sans-serif" font-size="10" lengthAdjust="spacing" textLength="27" x="391.5" y="78.4619">BAR0</text><path d="M371,100 L386,90 L386,95 L424,95 L424,90 L439,100 L424,110 L424,105 L386,105 L386,110 L371,100 " fill="#FFFFFF" style="stroke:#000000;stroke-width:1.0;"/><text fill="#000000" font-family="sans-serif" font-size="10" lengthAdjust="spacing" textLength="27" x="391.5" y="103.4619">BAR2</text><path d="M371,125 L386,115 L386,120 L424,120 L424,115 L439,125 L424,135 L424,130 L386,130 L386,135 L371,125 " fill="#FFFFFF" style="stroke:#000000;stroke-width:1.0;"/><text fill="#000000" font-family="sans-serif" font-size="10" lengthAdjust="spacing" textLength="27" x="391.5" y="128.4619">BAR4</text><path d="M638,100 L633,95 L633,105 L638,100 " fill="#000000" style="stroke:#000000;stroke-width:1.0;"/><path d="M541,100 L546,95 L546,105 L541,100 " fill="#000000" style="stroke:#000000;stroke-width:1.0;"/><line style="stroke:#000000;stroke-width:1.0;" x1="541" x2="639" y1="100" y2="100"/><rect fill="#FFFFFF" height="23.2813" style="stroke:#FFFFFF;stroke-width:1.0;" width="20" x="580" y="88.3594"/><text fill="#000000" font-family="sans-serif" font-size="10" lengthAdjust="spacing" textLength="20" x="580" y="97.6416">TCP</text><text fill="#000000" font-family="sans-serif" font-size="10" lengthAdjust="spacing" textLength="10" x="586" y="109.2822">IP</text><path d="M718,100 L713,95 L713,105 L718,100 " fill="#000000" style="stroke:#000000;stroke-width:1.0;"/><path d="M701,100 L706,95 L706,105 L701,100 " fill="#000000" style="stroke:#000000;stroke-width:1.0;"/><line style="stroke:#000000;stroke-width:1.0;" x1="701" x2="719" y1="100" y2="100"/><!--MD5=[dc7bb6020b370801c4a3764b12bb81f5]
@startwire{myimage.svg}
move(0, 20)
* Host_App
    print("\n(test_sample.exe)")
- -
move(120, 0)
* PCIe_Emulation #LightGrey
    * BRD #White
        print("\n(pcie-emu.ko)")
    - -
    move(50, 0)
    * Proxy #White
        print("\n(proxy.exe)")
- -
move(70, 0)
* Simulator_Model
    * Adapter [50x100]
        print("\nHost\nAdapter\nModel")
    - -
    * Runtime_Model [100x100]
        move(5,0)
        * M1 [25x25]
        * M2 [25x25]
        - -
        * M3 [25x25]
        * M4 [25x25]

Host_App(100%,15%) <=> PCIe_Emulation.BRD : [[ pcie_mapping.html#lblResource0 /dev/rescource0 ]]
Host_App <=> PCIe_Emulation.BRD : [[ pcie_mapping.html#lblResource2 /dev/rescource2 ]]
Host_App <=> PCIe_Emulation.BRD : [[ pcie_mapping.html#lblResource4 /dev/rescource4 ]]

PCIe_Emulation.BRD(100%,20%) <=> PCIe_Emulation.Proxy : BAR0
PCIe_Emulation.BRD <=> PCIe_Emulation.Proxy : BAR2
PCIe_Emulation.BRD <=> PCIe_Emulation.Proxy : BAR4

PCIe_Emulation.Proxy(100%,50%) <-> Simulator_Model : TCP\n  IP
Simulator_Model.Adapter(100%,50%) <-> Simulator_Model.Runtime_Model
@endwire

PlantUML version 1.2022.5(Sat Apr 30 10:55:52 UTC 2022)
(GPL source distribution)
Java Runtime: OpenJDK Runtime Environment
JVM: OpenJDK 64-Bit Server VM
Default Encoding: UTF-8
Language: en
Country: null
--></g></svg>